<?xml version="1.0" encoding="utf-8"?>
<!-- Generator: Adobe Illustrator 19.1.0, SVG Export Plug-In . SVG Version: 6.00 Build 0)  -->
<svg version="1.1"
	 id="svg2989" inkscape:version="0.48.3.1 r9886" sodipodi:docname="circle_arrow_left_font_awesome.svg" xmlns:cc="http://creativecommons.org/ns#" xmlns:dc="http://purl.org/dc/elements/1.1/" xmlns:sodipodi="http://sodipodi.sourceforge.net/DTD/sodipodi-0.dtd" xmlns:svg="http://www.w3.org/2000/svg" xmlns:inkscape="http://www.inkscape.org/namespaces/inkscape" xmlns:rdf="http://www.w3.org/1999/02/22-rdf-syntax-ns#"
	 xmlns="http://www.w3.org/2000/svg" xmlns:xlink="http://www.w3.org/1999/xlink" x="0px" y="0px" viewBox="0 0 612 792"
	 style="enable-background:new 0 0 612 792;" xml:space="preserve">
<sodipodi:namedview  inkscape:pageopacity="0" inkscape:pageshadow="2" inkscape:window-maximized="0" inkscape:window-width="640" inkscape:current-layer="svg2989" inkscape:window-height="480" inkscape:window-x="0" inkscape:window-y="25" pagecolor="#ffffff" bordercolor="#666666" objecttolerance="10" gridtolerance="10" id="namedview2995" guidetolerance="10" inkscape:cx="896" inkscape:cy="896" showgrid="false" inkscape:zoom="0.13169643" borderopacity="1">
	</sodipodi:namedview>
<g id="g2991" transform="matrix(1,0,0,-1,129.08475,1277.8305)">
	<path id="path2993" inkscape:connector-curvature="0" d="M-27.1,901.8v-51c0-6.9,2.5-12.9,7.6-17.9c5-5,11-7.6,17.9-7.6h200
		L123.1,750c-5-5-7.6-11-7.6-17.9s2.5-12.9,7.6-17.9l36.3-36.3c4.8-4.8,10.8-7.2,17.9-7.2s13.1,2.4,17.9,7.2l144.2,144.2l36.3,36.3
		c4.8,4.8,7.2,10.8,7.2,17.9s-2.4,13.1-7.2,17.9l-36.3,36.3l-144.2,144.2c-4.8,4.8-10.8,7.2-17.9,7.2s-13.1-2.4-17.9-7.2l-36.3-36.3
		c-4.8-4.8-7.2-10.8-7.2-17.9s2.4-13.1,7.2-17.9l75.3-75.3h-200c-6.9,0-12.9-2.5-17.9-7.6C-24.6,914.7-27.1,908.7-27.1,901.8z
		 M-129.1,876.3c0,55.5,13.7,106.7,41,153.6c27.4,46.9,64.5,84,111.4,111.4s98.1,41,153.6,41s106.7-13.7,153.6-41
		s84-64.5,111.4-111.4s41-98.1,41-153.6s-13.7-106.7-41-153.6c-27.4-46.9-64.5-84-111.4-111.4s-98.1-41-153.6-41
		S70.2,584,23.3,611.3c-46.9,27.4-84,64.5-111.4,111.4C-115.4,769.6-129.1,820.8-129.1,876.3z"/>
</g>
</svg>
